<svg width="107" height="33" viewBox="0 0 107 33" fill="none" xmlns="http://www.w3.org/2000/svg">
<path d="M7.88001 0.76001L7.72001 1.08001C7.66668 1.24001 7.56001 1.50668 7.40001 1.88001C7.24001 2.25334 7.16001 2.44001 7.16001 2.44001C7.16001 2.49334 8.68001 2.52001 11.72 2.52001H16.28V4.04001H8.60001L9.48001 4.36001C10.0667 4.57334 10.6 4.81334 11.08 5.08001C11.6667 5.34668 12.2 5.69334 12.68 6.12001C13.16 6.49334 13.48 6.78668 13.64 7.00001L13.88 7.32001H9.64001L9.32001 6.84001C9.10668 6.46668 8.78668 6.05334 8.36001 5.60001C7.93335 5.14668 7.53335 4.84001 7.16001 4.68001C6.78668 4.52001 6.54668 4.44001 6.44001 4.44001C6.33335 4.44001 5.98668 4.70668 5.40001 5.24001C4.81335 5.82668 4.25335 6.25334 3.72001 6.52001C3.24001 6.78668 2.73335 7.00001 2.20001 7.16001C1.72001 7.32001 1.26668 7.40001 0.840013 7.40001H0.200012L0.760012 6.68001C1.13335 6.25334 1.56001 5.72001 2.04001 5.08001C2.46668 4.49334 2.78668 4.04001 3.00001 3.72001C3.21335 3.34668 3.48001 2.76001 3.80001 1.96001L4.36001 0.76001H7.88001ZM21 0.76001C22.12 0.813344 22.68 0.866677 22.68 0.92001C22.6267 1.02668 22.52 1.32001 22.36 1.80001L22.04 2.44001H26.36L30.68 2.52001V4.04001H22.52L23.48 4.28001C24.1733 4.49334 24.76 4.70668 25.24 4.92001C25.7733 5.18668 26.2 5.42668 26.52 5.64001C26.8933 5.85334 27.2667 6.17334 27.64 6.60001C28.0667 6.97334 28.28 7.18668 28.28 7.24001C28.28 7.29334 27.56 7.32001 26.12 7.32001H23.96L23.64 6.76001C23.4267 6.38668 23.16 6.04001 22.84 5.72001C22.5733 5.40001 22.2533 5.13334 21.88 4.92001C21.5067 4.76001 21.24 4.68001 21.08 4.68001C20.92 4.68001 20.7733 4.77334 20.64 4.96001C20.5067 5.14668 20.24 5.40001 19.84 5.72001C19.44 6.04001 19.0267 6.30668 18.6 6.52001C18.2267 6.73334 17.7733 6.94668 17.24 7.16001C16.7067 7.32001 16.2267 7.40001 15.8 7.40001C15.3733 7.40001 15.16 7.38668 15.16 7.36001C15.16 7.33334 15.32 7.10668 15.64 6.68001C15.9067 6.36001 16.3333 5.82668 16.92 5.08001C17.4533 4.38668 17.8 3.88001 17.96 3.56001C18.1733 3.24001 18.4133 2.73334 18.68 2.04001C19 1.34668 19.1867 0.946676 19.24 0.840011C19.24 0.786677 19.8267 0.76001 21 0.76001ZM18.04 9.08001V13H24.76V12.12H26.52L28.28 12.04V20.6C28.28 26.2533 28.2533 29.2667 28.2 29.64C28.1467 30.0133 28.0267 30.4 27.84 30.8C27.6533 31.2 27.4533 31.5067 27.24 31.72C27.0267 31.9867 26.76 32.2 26.44 32.36C26.12 32.52 25.7467 32.6 25.32 32.6H24.76V29.32H7.00001L6.84001 29.96C6.73335 30.3333 6.62668 30.68 6.52001 31C6.36001 31.2133 6.14668 31.4533 5.88001 31.72C5.66668 32.04 5.40001 32.2533 5.08001 32.36C4.76001 32.52 4.41335 32.6 4.04001 32.6H3.48001V12.04H6.92001V13H14.6V9.08001H18.04ZM18.12 21.56L18.04 23.96C18.04 25.6133 17.9867 26.6 17.88 26.92C17.6667 27.3467 17.56 27.56 17.56 27.56L18.12 27.72C18.4933 27.7733 19.5067 27.8 21.16 27.8H24.76V21.56H18.12ZM6.92001 20.04H14.6V14.44H6.92001V20.04ZM18.04 20.04H24.76V14.44H18.04V20.04ZM6.92001 27.8H14.6V21.56H6.92001V27.8Z" fill="#212121"/>
<path d="M67.7366 2.32001C65.6566 2.28001 63.9366 3.92001 63.8966 6.00001C64.5366 3.68001 67.6966 3.16001 69.0166 5.12001C70.3766 7.16001 68.4966 10 66.0166 9.48001C68.5366 10.76 71.4566 8.92001 71.4966 6.12001C71.4966 4.00001 69.8166 2.32001 67.7366 2.32001ZM49.4566 9.16001C49.4566 9.60001 49.4166 10.68 49.2966 11.6C49.0166 13.84 47.9366 16.28 46.6166 18.28C43.9766 22.28 41.1366 23.96 38.7366 25.64C37.4966 26.48 38.6166 28.2 39.8166 27.56C42.7366 26 46.0566 23.68 48.8966 19.96C50.7766 17.56 52.3366 14.68 52.8166 11.6C52.9366 10.84 53.0566 9.84001 52.9766 9.12001C52.7366 6.92001 49.4566 6.88001 49.4566 9.16001ZM70.7366 21.72C71.0166 21.68 71.2166 21.4 71.0566 21.16C67.4566 13.64 63.7766 10.4 61.1766 8.92001C59.8166 8.16001 58.3766 9.80001 59.7366 10.92C63.1766 13.8 66.6166 18.04 66.9366 22.56C67.0166 23.4 66.8166 25.68 69.0566 26.12C67.3766 24.48 68.5766 21.72 70.7366 21.72Z" fill="#212121"/>
<path d="M103.497 4.08001C105.137 4.08001 105.217 1.60001 103.617 1.60001H89.8966C88.2566 1.60001 88.1766 4.08001 89.8166 4.08001H103.497ZM86.9766 8.88001C85.2566 8.88001 85.2566 11.36 86.9766 11.36H103.017C103.457 11.36 103.417 11.8 103.337 12.32C102.817 14.92 100.897 19.24 97.3366 23.08C96.3366 24.12 95.2166 25.04 94.0566 25.88C91.2566 27.84 88.4966 28.84 86.6166 29.8C85.7366 30.24 85.2966 30.88 85.2966 31.56C86.2966 30.08 88.4566 30.44 89.0566 31.96C89.1766 32.24 89.5366 32.36 89.7766 32.2C92.8166 30.32 96.7366 29.16 101.697 22.36C104.977 17.84 106.297 13.84 106.857 10C106.977 9.04001 106.257 8.24001 105.337 8.24001C104.977 8.20001 104.617 8.28001 104.257 8.52001C103.937 8.76001 103.497 8.88001 103.017 8.88001H86.9766Z" fill="#212121"/>
</svg>
