<svg xmlns="http://www.w3.org/2000/svg" width="100" height="130.449" viewBox="0 0 100 130.449">
  <g id="logo" transform="translate(-1.4 -1.33)">
    <rect id="長方形_39" data-name="長方形 39" width="29.51" height="1.86" transform="translate(1.651 78.059) rotate(-60.2)" fill="#212121"/>
    <rect id="長方形_40" data-name="長方形 40" width="1.86" height="15.783" transform="translate(21.935 62.197) rotate(-19.44)" fill="#212121"/>
    <rect id="長方形_41" data-name="長方形 41" width="21.084" height="1.86" transform="translate(40.359 52.421)" fill="#212121"/>
    <path id="パス_63" data-name="パス 63" d="M211.5,313.75v1.86h16.838l-15.853,17.56,1.381,1.248,18.659-20.668Z" transform="translate(-171.288 -255.529)" fill="#212121"/>
    <path id="パス_64" data-name="パス 64" d="M26.824,471.23l-1.239-1.39L1.4,491.4l1.239,1.39L16,480.878l-3.506,15.5,1.817.409,4.082-18.037Z" transform="translate(0 -365.967)" fill="#212121"/>
    <path id="パス_65" data-name="パス 65" d="M218.365,554.052l-11.819-13.57,10.587-11.692H197.2v1.86h15.739L192.35,553.391l1.379,1.248,11.561-12.767,11.67,13.41Z" transform="translate(-156.329 -423.503)" fill="#212121"/>
    <rect id="長方形_42" data-name="長方形 42" width="26.352" height="1.86" transform="translate(69.631 28.465) rotate(-73.6)" fill="#212121"/>
    <rect id="長方形_43" data-name="長方形 43" width="6.962" height="1.86" transform="translate(77.875 130.309) rotate(-73.6)" fill="#212121"/>
    <rect id="長方形_44" data-name="長方形 44" width="16.838" height="1.86" transform="matrix(0.283, -0.959, 0.959, 0.283, 80.564, 121.191)" fill="#212121"/>
    <rect id="長方形_45" data-name="長方形 45" width="6.962" height="1.86" transform="translate(85.206 130.31) rotate(-73.6)" fill="#212121"/>
    <rect id="長方形_46" data-name="長方形 46" width="5.187" height="1.86" transform="translate(94.83 56.561) rotate(-74.5)" fill="#212121"/>
    <rect id="長方形_47" data-name="長方形 47" width="5.187" height="1.86" transform="translate(98.221 56.562) rotate(-74.5)" fill="#212121"/>
    <rect id="長方形_48" data-name="長方形 48" width="16.838" height="1.86" transform="matrix(0.283, -0.959, 0.959, 0.283, 87.895, 121.192)" fill="#212121"/>
    <path id="パス_66" data-name="パス 66" d="M404.94,73.41V71.55h-5.855c.679-2.683,1.16-4.581,1.175-4.64l-1.8-.46c-.015.063-.552,2.176-1.291,5.1h-7.437v1.86h6.964c-.825,3.261-1.8,7.1-2.583,10.219-3.174-.055-6.286.269-7.477,1.574a3.553,3.553,0,0,0-.8,4.24,5.845,5.845,0,0,0,5.559,2.712,3.508,3.508,0,0,0,3.182-2.707c.177-.724.53-2.13.972-3.889a63.626,63.626,0,0,1,6.514.683l.293-1.839c-.939-.151-3.513-.53-6.347-.7.8-3.2,1.784-7.072,2.6-10.287ZM392.765,89a1.687,1.687,0,0,1-1.591,1.313,3.972,3.972,0,0,1-3.686-1.712,1.792,1.792,0,0,1,.521-2.134c.7-.762,2.926-.989,5.632-.961-.4,1.569-.711,2.823-.875,3.493Z" transform="translate(-307.165 -62.356)" fill="#212121"/>
    <path id="パス_67" data-name="パス 67" d="M58.509,63.072l-1.8-.477L55.349,67.7H45.5l-3.94,15.1H63.412l3.94-15.1H57.284Zm-6.7,17.873H43.954c.219-.8.749-2.869,1.313-5.034h7.879ZM45.756,74.05l1.171-4.487h7.914l-1.2,4.487Zm16.2,6.894H53.736l1.342-5.034h8.2c-.606,2.329-1.173,4.5-1.313,5.034Zm2.97-11.381c-.193.733-.657,2.528-1.171,4.487H55.572l1.2-4.487ZM47.566,59.222H50l.486,6.363,1.856-.14-.473-6.222h4.62v-1.86H48.516l1.375-2.7-1.668-.845L43.53,63.052l1.659.845ZM63.9,57.361l1.337-2.707-1.668-.823-4.084,8.262,1.67.823,1.793-3.695h4.213l-2.845,5.888,1.677.81,3.241-6.7h3.83v-1.86Z" transform="translate(-38.543 -52.49)" fill="#212121"/>
    <path id="パス_68" data-name="パス 68" d="M361.563,290.75l-8.013,11.11,1.51,1.094,2.664-3.695,8.254,2.408-9.7,13.622,1.532,1.079,18.228-25.608Zm-2.683,6.9,3.635-5.034h9.9l-5.3,7.442Z" transform="translate(-282.247 -237.563)" fill="#212121"/>
    <path id="パス_69" data-name="パス 69" d="M126.441,279.595a4.152,4.152,0,0,0,.709,3.5,3.333,3.333,0,0,0,2.655,1.237,5.4,5.4,0,0,0,4.914-4.347h0a4.152,4.152,0,0,0-.709-3.5,3.333,3.333,0,0,0-2.655-1.237A5.405,5.405,0,0,0,126.441,279.595Zm2.156,2.329a2.309,2.309,0,0,1-.335-1.939,3.586,3.586,0,0,1,3.093-2.876,1.491,1.491,0,0,1,1.208.547,2.031,2.031,0,0,1,.407,1.289,3.093,3.093,0,0,1-.072.657,3.586,3.586,0,0,1-3.093,2.876,1.49,1.49,0,0,1-1.208-.554Z" transform="translate(-104.758 -225.453)" fill="#212121"/>
  </g>
</svg>
